<?xml version="1.0" encoding="UTF-8"?>
<svg version="1.1" viewBox="0 0 1386 2048" width="411" height="607" xmlns="http://www.w3.org/2000/svg">
<path transform="translate(1113,24)" d="m0 0 9 1 5 3 2 5 1 8v358l-1 75-3 24-6 24-7 20-6 11-12 16-10 11-6 7-11 9-31 29-9 9-7 8-8 9-7 8-12 13-12 11-13 13-8 7-13 12-5 5-16 15-28 28-9 11-38 38-8 7-7 7-8 7-59 59-7 8-15 15h-2l-2 4-16 15-16 16-11 9-10 10h-2l-2 4-27 27-7 8-57 57-8 7-7 7-8 7-25 25-7 8-10 11-6 5-1 2h-2l-1 3-8 7-7 8-4 2-2 4-9 9-8 7-11 11-11 9-8 8-8 7-8 9-5 5-12 13-7 8-53 53h-2v2l-11 9-8 8-8 7-14 14-7 8-9 10-18 18-8 7-27 27-8 7-9 9-11 9-29 29-7 8-35 35-8 7-28 28-8 7-10 9-10 10-9 11-13 14-9 11-13 13-6 7-10 6-6 2-5-2-6-7-1-2-1-9-1-66v-974l1-40 4-8 7-5h10l10 6 5 5v2h2l7 8 11 11 7 8 9 10 7 8 12 13 17 16 15 14 63 63 7 8 24 24 8 7 25 25 8 7 7 7 8 7 11 11 8 7 11 13 8 10 2 1 8-7 10-11 24-24 2-3h2l1-3h2l2-4 17-17 5-6 8-7 12-12 8-7 9-9 9-11 69-69 8-7 9-9 8-7 11-10 7-8 14-15 18-18 9-10 9-8 50-50 8-7 7-7 1-2h2l2-4 37-37 5-4 7-8 10-9 7-8 14-14 6-5 5-6 8-7 28-28 1-2h2l2-4 14-14 7-8 15-15h2l2-4 45-45 8-7 9-9 4-5 38-38 8-7 5-6 4-4h2l2-4 13-13 8-7 19-19 8-7 11-11 5-6h2l1-3 5-4 5-6 8-7 43-43 11-8z" fill="#D77422"/>
<path transform="translate(1348,573)" d="m0 0h7l6 3 4 8 2 11 1 125v871l-1 18-6 6h-6l-9-6-56-56-11-9-7-6-5-6-8-7-10-11-7-9-1-3-4-2-36-36-4-5-8-7-23-23-8-7-14-13-14-16-9-11-11-12-8-7-9-6-11-3-10 2-7 4-10 9-11 9-7 8-8 7-8 9-29 29-8 7-19 19-8 7-15 15-8 7-12 11-41 41-8 7-10 10-8 7-81 81h-2l-2 4-28 28-14 13-5 6-8 7-16 16-8 7-30 30-6 5-7 8-3 1v2l-5 5-17 16-5 5h-2l-2 4-107 107-8 7-5 6-8 7-28 28-8 7-21 21-11 14-11 13-14 14-13 9-9 3-6-1-5-4-3-6-1-6-1-20v-398l3-25 5-16 12-23 12-17 9-10 7-8 8-8 6-7 5-4 7-8 11-12 8-7 15-15 8-7 10-10 8-7 14-14 8-7 41-41 7-8 30-30 11-9 20-20 8-7 23-23h2l2-4 12-12 7-8 12-12 8-7 11-11 8-7 16-15 47-47 7-8 16-16 4-5 8-7 29-29 8-7 17-17 8-7 24-24 7-8 30-30h2l2-4 16-15 13-13 8-7 26-26 7-8 9-9 4-5 8-7 43-43 8-7 16-15 34-34 7-8 14-14 8-7 9-10 14-14 8-7 10-10 8-7 17-16 7-7 7-8 16-17 30-30 7-8 14-14 8-7 13-12 10-9 8-5z" fill="#fff"/>
<path transform="translate(17,519)" d="m0 0h10l10 6 5 5v2h2l7 8 11 11 7 8 9 10 7 8 12 13 17 16 15 14 63 63 7 8 24 24 8 7 25 25 8 7 7 7 8 7 11 11 8 7 11 13 8 10-1 501v32l-7 7-7 8-19 19-8 7-27 27-8 7-9 9-11 9-29 29-7 8-35 35-8 7-28 28-8 7-10 9-10 10-9 11-13 14-9 11-13 13-6 7-10 6-6 2-5-2-6-7-1-2-1-9-1-66v-974l1-40 4-8z" fill="#fff"/>
<path transform="translate(1126,485)" d="m0 0h1l-1 13-6 24-7 20-6 11-12 16-10 11-6 7-11 9-31 29-9 9-7 8-8 9-7 8-12 13-12 11-13 13-8 7-13 12-5 5-16 15-28 28-9 11-38 38-8 7-7 7-8 7-59 59-7 8-15 15h-2l-2 4-16 15-16 16-11 9-10 10h-2l-2 4-27 27-7 8-57 57-8 7-7 7-8 7-25 25-7 8-10 11-6 5-1 2h-2l-1 3-8 7-7 8-4 2-2 4-9 9-8 7-11 11-11 9-8 8-8 7-8 9-5 5-12 13-7 8-53 53h-2v2l-11 9-8 8-8 7-15 15h-1v-53l1-478h5l1 16-1 42-1 44v60l2 1v36l1 29v8l1 3v14l-3 3-2 9v13l1 29 1 111 1 35 2-10v-11l-1-5v-41h2l1-5 3-8v-8l2-8v-8l1-7 1-15v-5l2-1 2 12v55l-1 29-1 8v38l3 13 8 5 1 2 9-2 5-3 7-8 5-4 12-18 15-14 8-7 10-9 5-5 7-8 4-8 5-5 6-9 4-4 15-6 4-1 2-4h2l1-3h2v-2l6-5 5-6 4-11 11-8 8-4 3-1v-2l5-5 7-9 7-8 5-5h2v-2l5-5 4-6 8-6 4-4 6-3 5-5 8-7 5-6 6-5h2l1-3h2l2-4 2-2 2-7 2-3h2l2-4 10-10 8-4h2v-2l6-3 13-11 8-10h2l2-4 5-6 4-4h2l2-4 5-6 5-4 2-3h2l2-4h2l2-4 8-9 5-4h2v-2h2l2-5 12-11 9-9 7-10 9-9 10-2 8-7 8-9 2-2 6-7 5-6 1-2h2l2-4 3-1 2-5 3-1 2-4 3-3 3-1 2-2 6-4 8-7 5-5 8-7 3-3h2l2-4 7-8 6-8 14-7 3-6 4-6 8-7 7-9 7-11 8-11h2l2-4 11-8 6-3 5-5 5-4 7-11 8-14 7-7 20-14 8-5 5-5 9-14 12-14 6-8 9-7 10-11 7-10 4-3h2l2-4 14-9 10-7 7-7 7-9 4-4h2l3-9 4-8 6-19 3-16 5-5 3-5 3-1z" fill="#D77422"/>
<path transform="translate(980,147)" d="m0 0 2 1-4 6-75 75-5 6-11 9-74 74-1 4-3 1-1 3-8 7-30 30h-2l-1 3-8 7-3 3-2-1 7-8 8-7 28-28 1-2h2l2-4 14-14 7-8 15-15h2l2-4 45-45 8-7 9-9 4-5 38-38 8-7 5-6 4-4h2l2-4z" fill="#D77422"/>
<path transform="translate(1113,24)" d="m0 0 3 1-12 6-10 9-8 7-5 6h-2l-2 4-27 27-8 7-32 32-4 2 1-4 8-7 11-11 5-6h2l1-3 5-4 5-6 8-7 43-43 11-8z" fill="#D77422"/>
<path transform="translate(494,633)" d="m0 0 1 2-7 9-34 34-8 7-11 12-7 8-16 15-12 11-12 12-2-1 6-7 8-7 12-12 8-7 9-9 9-11z" fill="#D77422"/>
<path transform="translate(980,147)" d="m0 0 2 1-4 6-75 75-5 6-7 6-2-1 7-7 7-8 5-6 38-38 8-7 5-6 4-4h2l2-4z" fill="#D77422"/>
<path transform="translate(570,558)" d="m0 0 1 2-7 8-6 8h-2l-2 4-6 7h-2l-2 4-12 12-5 3-7 5-2-1 17-16 8-7 7-8 14-15z" fill="#D77422"/>
<path transform="translate(657,472)" d="m0 0v3l-4 4h-2l-2 4-15 15-6 7h-2l-1 3-11 9-19 19-8 7-3 2 2-4 9-9 5-4 50-50z" fill="#D77422"/>
<path transform="translate(811,318)" d="m0 0 2 3-4 2-1 3-8 7-30 30h-2l-1 3-8 7-3 3-2-1 7-8 8-7 28-28 1-2h2l2-4z" fill="#D77422"/>
<path transform="translate(439,688)" d="m0 0 2 2-11 13-7 7-8 7-16 15-11 11-2-1 6-7 8-7 12-12 8-7 9-9 9-11z" fill="#D77422"/>
<path transform="translate(931,196)" d="m0 0v3l-12 12-3 5-13 13-5 6-7 6-2-1 7-7 7-8 5-6 5-5z" fill="#D77422"/>
<path transform="translate(496,635)" d="m0 0 1 3-7 14-7 5-3-1 3-5 3-1 2-4z" fill="#D77422"/>
<path transform="translate(980,147)" d="m0 0 2 1-10 10-6 7-4 2 1-3h2l2-4zm-19 20m-2 1 2 1-2 1zm-1 2m-2 1 2 1-2 1zm-1 2m-1 1m-1 1m-1 1m-1 1m-1 1m-1 1m-1 1m-2 1 2 1-14 14-2-1z" fill="#D77422"/>
<path transform="translate(1112,33)" d="m0 0h6l3 2v2l2 1-1 2h-14l-2-1 1-3z" fill="#D77422"/>
<path transform="translate(619,509)" d="m0 0m-1 1m-1 1m-1 1m-1 1v3l-20 20-8 7-3 2 2-4 9-9 5-4 5-5z" fill="#D77422"/>
<path transform="translate(330,799)" d="m0 0 1 3-1 9-2 2-6-1-1-3 8-8z" fill="#D77422"/>
<path transform="translate(726,403)" d="m0 0v3l-8 8-5 3 2-4 7-7zm-14 14m-1 1m-1 1m-1 1m-2 1 2 1-14 14 1-4z" fill="#D77422"/>
<path transform="translate(494,633)" d="m0 0 1 2-2-1zm-2 2m-1 1m-1 1m-1 1m-1 1m-1 1m-1 1m-1 1m-1 1m-1 1m-1 1m-1 1m-1 1m-1 1m-1 1m-1 1m-1 1m-1 1m-1 1m-1 1m-1 1m-1 1m-1 1m-1 1m-1 1m-1 1m-1 1m-1 1m-1 1m-1 1m-1 1m-1 1m-1 1m-1 1m-1 1m-1 1m-1 1m-1 1m-1 1m-1 1m-1 1m-1 1m-1 1m-1 1m-1 1m-1 1m-1 1m-1 1m-1 1m-1 1m-1 1 1 3-3 1z" fill="#D77422"/>
<path transform="translate(410,718)" d="m0 0m-1 1m-1 1m-1 1v3l-19 19-2-1 6-7 8-7z" fill="#D77422"/>
<path transform="translate(570,558)" d="m0 0 1 2-7 8-8 7v-3z" fill="#D77422"/>
<path transform="translate(1006,122)" d="m0 0m-1 1 1 3-8 7-8 8-3 4-3-1z" fill="#D77422"/>
<path transform="translate(779,350)" d="m0 0m-1 1m-1 1m-1 1m-1 1m-1 1m-1 1m-1 1m-1 1m-1 1m-1 1m-1 1m-1 1 1 3-10 9-4 2 6-8z" fill="#D77422"/>
<path transform="translate(566,569)" d="m0 0 2 2-5 9-4 4h-2l-1 3-3-1 6-6 2-1v-2h2l2-6z" fill="#D77422"/>
<path transform="translate(374,754)" d="m0 0 2 1-10 11-4 2 1-3h2l1-3h2l2-4z" fill="#D77422"/>
<path transform="translate(694,434)" d="m0 0 1 3-13 12-2-1z" fill="#D77422"/>
</svg>
